<?xml version="1.0" encoding="UTF-8" standalone="no"?>
<svg
   width="159"
   height="110"
   version="1.1"
   id="svg2"
   sodipodi:docname="youtube.svg"
   inkscape:version="1.3.2 (091e20ef0f, 2023-11-25, custom)"
   xmlns:inkscape="http://www.inkscape.org/namespaces/inkscape"
   xmlns:sodipodi="http://sodipodi.sourceforge.net/DTD/sodipodi-0.dtd"
   xmlns="http://www.w3.org/2000/svg"
   xmlns:svg="http://www.w3.org/2000/svg">
  <defs
     id="defs2" />
  <sodipodi:namedview
     id="namedview2"
     pagecolor="#505050"
     bordercolor="#eeeeee"
     borderopacity="1"
     inkscape:showpageshadow="0"
     inkscape:pageopacity="0"
     inkscape:pagecheckerboard="0"
     inkscape:deskcolor="#505050"
     inkscape:zoom="3.5177451"
     inkscape:cx="53.585464"
     inkscape:cy="77.180124"
     inkscape:window-width="1920"
     inkscape:window-height="1020"
     inkscape:window-x="1920"
     inkscape:window-y="0"
     inkscape:window-maximized="1"
     inkscape:current-layer="svg2" />
  <path
     id="path1"
     d="M 75.451172 0.43164062 C 52.323646 0.50483635 29.311708 1.4820336 18.199219 3.8007812 C 11.469225 5.6207794 6.2003888 10.869616 4.4003906 17.599609 C 0.32039471 35.499591 0.01000449 74.200018 4.5 92.5 C 6.3199982 99.229993 11.570788 104.50078 18.300781 106.30078 C 36.200763 110.42078 121.3008 111.00078 140.30078 106.30078 C 147.03077 104.48078 152.29961 99.229993 154.09961 92.5 C 158.44961 73.00002 158.76 36.699981 154 17.5 C 152.18 10.770007 146.92921 5.499217 140.19922 3.6992188 C 135.11422 1.7360957 105.18656 0.33753183 75.451172 0.43164062 z M 64.199219 31.599609 L 105 55 L 64.199219 78.400391 L 64.199219 31.599609 z "
     style="fill:#65f8b0;fill-opacity:1" />
</svg>
